<svg width="68" height="68" fill="none" xmlns="http://www.w3.org/2000/svg">
<path fill-rule="evenodd" clip-rule="evenodd" d="M 32.76 0 c -7.019 0 -14.294 1.128 -19.25 4.19 C 5.469 9.157 3.118 18.855 3.39 27.784 C 3.63 35.506 5.695 43.8 11.18 49.503 c 5.233 5.441 15.999 7.888 23.337 7.888 c 0.331 0 0.681 0.238 0.681 0.682 v 7.794 a 1.35 1.35 0 0 0 1.364 1.368 c 0.045 0 0.086 -0.008 0.129 -0.012 c 0.29 -0.026 0.545 -0.133 0.748 -0.304 c 3.699 -3.171 7.398 -6.395 10.966 -9.715 c 3.42 -3.183 7.294 -6.452 9.97 -10.262 c 5.645 -8.037 6.48 -19.398 4.61 -28.818 c -1.8 -9.063 -8.218 -14.964 -17.216 -16.842 C 42.066 0.508 37.47 0 32.76 0" fill="#00c6d7"/>
</svg>
