<svg width="121" height="131" viewBox="0 0 121 131" fill="none" xmlns="http://www.w3.org/2000/svg">
<path d="M56.9995 72.9837V49.0935L106.507 54.2745L62.1805 73.2715L56.9995 72.9837Z" fill="#D2DFE6"/>
<path d="M57.2873 49.0935L11.2339 58.592L24.4742 70.1054L56.7116 76.1499L57.2873 49.0935Z" fill="#E7EDF4"/>
<ellipse opacity="0.5" cx="61.0486" cy="117.184" rx="57.4761" ry="13.3665" fill="#B9CBD3"/>
<path d="M61.6046 125.657V64.3487L11.2337 58.592L11.5215 115.583L61.6046 125.657Z" fill="#E7EDF4"/>
<path d="M61.6046 64.3487L50.0913 87.6632L0.00818634 78.4525L11.2337 58.592L61.6046 64.3487Z" fill="white"/>
<path d="M61.6046 125.657V64.3486L105.931 54.5623V112.705L61.6046 125.657Z" fill="#F8FBFB"/>
<path d="M61.6046 64.3486L76.572 88.8145L120.898 75.862L106.507 54.5623L61.6046 64.3486Z" fill="white"/>
<path d="M58.856 19.4466C68.8343 22.6128 82.9188 29.2905 64.0369 35.2775C40.4345 42.7611 35.2531 45.9273 46.7667 51.684L61.7343 58.592" stroke="#B9CBD3" stroke-width="0.863502" stroke-dasharray="3.45 3.45"/>
<path d="M41.1097 0.537325C41.2424 0.442095 41.415 0.422946 41.5653 0.4867L67.1997 10.8316L70.2363 12.0917L61.0606 15.8066H61.0504V15.8116L58.5958 24.38C58.5464 24.5525 58.4092 24.686 58.2355 24.7307C58.0617 24.7754 57.8772 24.7248 57.7506 24.5977L52.6389 19.3696L45.7406 22.0823C45.4563 22.1985 45.1344 22.1775 44.8676 22.0254C44.6008 21.8732 44.4188 21.6068 44.3741 21.3029L40.892 1.06364C40.8473 0.859935 40.9341 0.649869 41.1097 0.537325ZM55.9742 18.0132L55.9641 17.9778L55.9489 17.9828L55.9742 18.0132Z" fill="white"/>
<path d="M52.6387 19.3696L57.7505 24.5978C57.6909 24.5329 57.6475 24.4549 57.6239 24.37L55.974 18.0133L55.9487 17.9829L53.7522 18.904L52.7703 19.3191L52.6387 19.3696Z" fill="#CDDBE2"/>
<path d="M41.0723 0.564507L55.9489 17.9827L55.9641 17.9777L55.9742 18.0131L57.6241 24.3698C57.6477 24.4547 57.691 24.5327 57.7507 24.5976C57.8772 24.7247 58.0617 24.7753 58.2355 24.7306C58.4093 24.6859 58.5464 24.5524 58.5959 24.3799L61.0505 15.8115V15.8065H61.0555V15.8014L41.0723 0.564507Z" fill="#E7EDF4"/>
</svg>
