<svg xmlns="http://www.w3.org/2000/svg" height="73" width="147">
    <mask id="a" fill="#fff">
        <path d="M.206.072h27.853v36.193H.206z" fill-rule="evenodd"/>
    </mask>
    <mask id="b" fill="#fff">
        <path d="M0 0h60.512v67.235H0z" fill-rule="evenodd"/>
    </mask>
    <g fill="none" fill-rule="evenodd">
        <g fill="#221f1f">
            <path d="M69.494 6.27l-3.057 3.232-2.222 2.346h1.961v5.815c0 2.452 1.209 3.443 4.265 3.443a9.22 9.22 0 001.664-.148v-2.39a7.888 7.888 0 01-.98.047c-1.129 0-1.63-.502-1.63-1.597v-5.17h2.61v-2.61h-2.61z"/>
            <path d="M8.913 15.661c0 .218.03.436.093.645.792 2.695 2.623 3.856 4.89 3.856 3.042 0 5.193-1.94 5.193-6.714 0-4.72-2.15-6.714-5.193-6.714-2.427 0-4.221 1.17-4.91 3.887a2.34 2.34 0 00-.073.572zM.206 35.665V1.197a.6.6 0 01.6-.6h7.047a.6.6 0 01.587.471l.473 2.151C10.75 1.122 13.373.072 16.676.072c6.505 0 11.383 4.144 11.383 13.376S23.233 26.93 16.676 26.93c-3.251 0-5.927-1.05-7.763-3.2v11.936a.6.6 0 01-.601.6H.807a.6.6 0 01-.601-.6z" mask="url(#a)" transform="translate(117.53 35.735)"/>
            <path d="M74.884 51.543c0 .193.025.385.072.572.69 2.717 2.483 3.887 4.91 3.887 3.043 0 5.193-1.993 5.193-6.714 0-4.773-2.15-6.714-5.192-6.714-2.268 0-4.1 1.161-4.89 3.856-.062.21-.093.427-.093.645zM66.777 26.47h7.506c.331 0 .6.27.6.601v11.936c1.837-2.15 4.512-3.2 7.764-3.2 6.557 0 11.383 4.249 11.383 13.481s-4.88 13.377-11.383 13.377c-3.305 0-5.927-1.05-7.763-3.148l-.473 2.15a.601.601 0 01-.587.472h-7.047a.6.6 0 01-.6-.6V27.071a.6.6 0 01.6-.6zm29.321 0h7.506a.6.6 0 01.6.601V61.54a.6.6 0 01-.6.6h-7.506a.6.6 0 01-.601-.6V27.07a.6.6 0 01.601-.6m11.119 9.862h7.506a.6.6 0 01.6.6V61.54a.6.6 0 01-.6.6h-7.506a.6.6 0 01-.6-.6V36.933a.6.6 0 01.6-.601m-.6-3.853v-5.408a.6.6 0 01.6-.6h7.506a.6.6 0 01.6.6v5.408a.6.6 0 01-.6.6h-7.506a.6.6 0 01-.6-.6m-8.05-25.242c1.486 0 2.447.995 2.512 2.59h-5.135c.11-1.562 1.148-2.59 2.623-2.59zm5.637 4.622v-.972c0-3.824-2.097-6.086-5.648-6.086-3.584 0-5.79 2.425-5.79 6.348 0 3.91 2.366 6.228 6.038 6.228 2.95 0 4.821-1.42 5.302-3.693h-2.961c-.339.797-1.202 1.246-2.458 1.246-1.66 0-2.71-1.115-2.754-2.907v-.164z"/>
            <path d="M80.354 16.352c0 1.277-1.163 2.257-2.703 2.257-1.15 0-1.96-.57-1.96-1.504 0-.902.695-1.414 2.12-1.517l2.543-.16zM94.926 4.8h-3.553l-4.43 4.878V0h-3.317l-.002 11.901a5.301 5.301 0 00-.23-1.074c-.595-1.766-2.328-2.764-4.979-2.764-3.158 0-5.29 1.459-5.506 3.785h3.055c.274-.752 1.072-1.163 2.269-1.163 1.368 0 2.12.593 2.12 1.642v1.026l-3.044.183c-3.123.182-4.868 1.505-4.868 3.785 0 2.303 1.699 3.785 4.116 3.785.455 0 .958-.015 1.445-.036 1.972-.197 3.428-1.316 4.127-1.974l1.497-1.582 3.302-3.685.4-.446 3.804 3.991h4.086l-5.92-6.22z"/>
        </g>
        <path d="M29.39 0c-7.019 0-14.294 1.128-19.25 4.19C2.099 9.157-.252 18.855.02 27.784.26 35.506 2.325 43.8 7.81 49.503c5.233 5.441 15.999 7.888 23.337 7.888.331 0 .681.238.681.682v7.794a1.35 1.35 0 001.364 1.368c.045 0 .086-.008.129-.012.29-.026.545-.133.748-.304 3.699-3.171 7.398-6.395 10.966-9.715 3.42-3.183 7.294-6.452 9.97-10.262 5.645-8.037 6.48-19.398 4.61-28.818-1.8-9.063-8.218-14.964-17.216-16.842C38.696.508 34.1 0 29.39 0" fill="#00c6d7" mask="url(#b)" transform="translate(0 4.765)"/>
    </g>
</svg>